# Made in Blockbench 2.5.1
mtllib bush.mtl
o Wood
v 1 -5 1
v 1 -5 -1
v 1 -8 1
v 1 -8 -1
v -1 -5 -1
v -1 -5 1
v -1 -8 -1
v -1 -8 1
vt 0.4375 0.875
vt 0.4375 0.6875
vt 0.5625 0.875
vt 0.4375 0.6875
vt 0.5625 0.6875
vt 0.5625 0.875
vt 0.4375 0.5
vt 0.4375 0.3125
vt 0.5625 0.5
vt 0.4375 0.3125
vt 0.5625 0.3125
vt 0.5625 0.5
vt 0 1
vt 0 1
vt 0 1
vt 0 1
vt 0 1
vt 0 1
vt 0.6875 0.5625
vt 0.6875 0.4375
vt 0.8125 0.5625
vt 0.6875 0.4375
vt 0.8125 0.4375
vt 0.8125 0.5625
vt 0.5625 0.5
vt 0.5625 0.3125
vt 0.6875 0.5
vt 0.5625 0.3125
vt 0.6875 0.3125
vt 0.6875 0.5
vt 0 1
vt 0 0.8125
vt 0.125 1
vt 0 0.8125
vt 0.125 0.8125
vt 0.125 1
vn 1 0 0
vn 1 0 0
vn 1 0 0
vn 1 0 0
vn 1 0 0
vn 1 0 0
vn -1 0 0
vn -1 0 0
vn -1 0 0
vn -1 0 0
vn -1 0 0
vn -1 0 0
vn 0 1 0
vn 0 1 0
vn 0 1 0
vn 0 1 0
vn 0 1 0
vn 0 1 0
vn 0 -1 0
vn 0 -1 0
vn 0 -1 0
vn 0 -1 0
vn 0 -1 0
vn 0 -1 0
vn 0 0 1
vn 0 0 1
vn 0 0 1
vn 0 0 1
vn 0 0 1
vn 0 0 1
vn 0 0 -1
vn 0 0 -1
vn 0 0 -1
vn 0 0 -1
vn 0 0 -1
vn 0 0 -1
usemtl oak_log
f 1/1/1 3/2/2 2/3/3
f 3/4/4 4/5/5 2/6/6
usemtl oak_log
f 5/7/7 7/8/8 6/9/9
f 7/10/10 8/11/11 6/12/12
usemtl oak_log
f 8/19/19 7/20/20 3/21/21
f 7/22/22 4/23/23 3/24/24
usemtl oak_log
f 6/25/25 8/26/26 1/27/27
f 8/28/28 3/29/29 1/30/30
usemtl oak_log
f 2/31/31 4/32/32 5/33/33
f 4/34/34 7/35/35 5/36/36
o MainLeaves
v 5 7 5
v 5 7 -5
v 5 -5 5
v 5 -5 -5
v -5 7 -5
v -5 7 5
v -5 -5 -5
v -5 -5 5
vt 0 1
vt 0 0.25
vt 0.625 1
vt 0 0.25
vt 0.625 0.25
vt 0.625 1
vt 0 1
vt 0 0.25
vt 0.625 1
vt 0 0.25
vt 0.625 0.25
vt 0.625 1
vt 0 1
vt 0 0.375
vt 0.625 1
vt 0 0.375
vt 0.625 0.375
vt 0.625 1
vt 0 1
vt 0 0.375
vt 0.625 1
vt 0 0.375
vt 0.625 0.375
vt 0.625 1
vt 0 1
vt 0 0.25
vt 0.625 1
vt 0 0.25
vt 0.625 0.25
vt 0.625 1
vt 0 1
vt 0 0.25
vt 0.625 1
vt 0 0.25
vt 0.625 0.25
vt 0.625 1
vn 1 0 0
vn 1 0 0
vn 1 0 0
vn 1 0 0
vn 1 0 0
vn 1 0 0
vn -1 0 0
vn -1 0 0
vn -1 0 0
vn -1 0 0
vn -1 0 0
vn -1 0 0
vn 0 1 0
vn 0 1 0
vn 0 1 0
vn 0 1 0
vn 0 1 0
vn 0 1 0
vn 0 -1 0
vn 0 -1 0
vn 0 -1 0
vn 0 -1 0
vn 0 -1 0
vn 0 -1 0
vn 0 0 1
vn 0 0 1
vn 0 0 1
vn 0 0 1
vn 0 0 1
vn 0 0 1
vn 0 0 -1
vn 0 0 -1
vn 0 0 -1
vn 0 0 -1
vn 0 0 -1
vn 0 0 -1
usemtl green_concrete_powder
f 9/37/37 11/38/38 10/39/39
f 11/40/40 12/41/41 10/42/42
usemtl green_concrete_powder
f 13/43/43 15/44/44 14/45/45
f 15/46/46 16/47/47 14/48/48
usemtl green_concrete_powder
f 13/49/49 14/50/50 10/51/51
f 14/52/52 9/53/53 10/54/54
usemtl green_concrete_powder
f 16/55/55 15/56/56 11/57/57
f 15/58/58 12/59/59 11/60/60
usemtl green_concrete_powder
f 14/61/61 16/62/62 9/63/63
f 16/64/64 11/65/65 9/66/66
usemtl green_concrete_powder
f 10/67/67 12/68/68 13/69/69
f 12/70/70 15/71/71 13/72/72
o SmallLeaves1
v -4.3 1 -2
v -4.3 1 -3
v -4.3 -3 -2
v -4.3 -3 -3
v -5.3 1 -3
v -5.3 1 -2
v -5.3 -3 -3
v -5.3 -3 -2
vt 0 1
vt 0 1
vt 0 1
vt 0 1
vt 0 1
vt 0 1
vt 0 1
vt 0 0.75
vt 0.0625 1
vt 0 0.75
vt 0.0625 0.75
vt 0.0625 1
vt 0 1
vt 0 0.9375
vt 0.0625 1
vt 0 0.9375
vt 0.0625 0.9375
vt 0.0625 1
vt 0 1
vt 0 0.9375
vt 0.0625 1
vt 0 0.9375
vt 0.0625 0.9375
vt 0.0625 1
vt 0 1
vt 0 0.75
vt 0.0625 1
vt 0 0.75
vt 0.0625 0.75
vt 0.0625 1
vt 0 1
vt 0 0.75
vt 0.0625 1
vt 0 0.75
vt 0.0625 0.75
vt 0.0625 1
vn 1 0 0
vn 1 0 0
vn 1 0 0
vn 1 0 0
vn 1 0 0
vn 1 0 0
vn -1 0 0
vn -1 0 0
vn -1 0 0
vn -1 0 0
vn -1 0 0
vn -1 0 0
vn 0 1 0
vn 0 1 0
vn 0 1 0
vn 0 1 0
vn 0 1 0
vn 0 1 0
vn 0 -1 0
vn 0 -1 0
vn 0 -1 0
vn 0 -1 0
vn 0 -1 0
vn 0 -1 0
vn 0 0 1
vn 0 0 1
vn 0 0 1
vn 0 0 1
vn 0 0 1
vn 0 0 1
vn 0 0 -1
vn 0 0 -1
vn 0 0 -1
vn 0 0 -1
vn 0 0 -1
vn 0 0 -1
usemtl green_concrete_powder
f 21/79/79 23/80/80 22/81/81
f 23/82/82 24/83/83 22/84/84
usemtl green_concrete_powder
f 21/85/85 22/86/86 18/87/87
f 22/88/88 17/89/89 18/90/90
usemtl green_concrete_powder
f 24/91/91 23/92/92 19/93/93
f 23/94/94 20/95/95 19/96/96
usemtl green_concrete_powder
f 22/97/97 24/98/98 17/99/99
f 24/100/100 19/101/101 17/102/102
usemtl green_concrete_powder
f 18/103/103 20/104/104 21/105/105
f 20/106/106 23/107/107 21/108/108
o SmallLeaves2
v -4.3 6 3
v -4.3 6 2
v -4.3 2 3
v -4.3 2 2
v -5.3 6 2
v -5.3 6 3
v -5.3 2 2
v -5.3 2 3
vt 0 1
vt 0 1
vt 0 1
vt 0 1
vt 0 1
vt 0 1
vt 0 1
vt 0 0.75
vt 0.0625 1
vt 0 0.75
vt 0.0625 0.75
vt 0.0625 1
vt 0 1
vt 0 0.9375
vt 0.0625 1
vt 0 0.9375
vt 0.0625 0.9375
vt 0.0625 1
vt 0 1
vt 0 0.9375
vt 0.0625 1
vt 0 0.9375
vt 0.0625 0.9375
vt 0.0625 1
vt 0 1
vt 0 0.75
vt 0.0625 1
vt 0 0.75
vt 0.0625 0.75
vt 0.0625 1
vt 0 1
vt 0 0.75
vt 0.0625 1
vt 0 0.75
vt 0.0625 0.75
vt 0.0625 1
vn 1 0 0
vn 1 0 0
vn 1 0 0
vn 1 0 0
vn 1 0 0
vn 1 0 0
vn -1 0 0
vn -1 0 0
vn -1 0 0
vn -1 0 0
vn -1 0 0
vn -1 0 0
vn 0 1 0
vn 0 1 0
vn 0 1 0
vn 0 1 0
vn 0 1 0
vn 0 1 0
vn 0 -1 0
vn 0 -1 0
vn 0 -1 0
vn 0 -1 0
vn 0 -1 0
vn 0 -1 0
vn 0 0 1
vn 0 0 1
vn 0 0 1
vn 0 0 1
vn 0 0 1
vn 0 0 1
vn 0 0 -1
vn 0 0 -1
vn 0 0 -1
vn 0 0 -1
vn 0 0 -1
vn 0 0 -1
usemtl green_concrete_powder
f 29/115/115 31/116/116 30/117/117
f 31/118/118 32/119/119 30/120/120
usemtl green_concrete_powder
f 29/121/121 30/122/122 26/123/123
f 30/124/124 25/125/125 26/126/126
usemtl green_concrete_powder
f 32/127/127 31/128/128 27/129/129
f 31/130/130 28/131/131 27/132/132
usemtl green_concrete_powder
f 30/133/133 32/134/134 25/135/135
f 32/136/136 27/137/137 25/138/138
usemtl green_concrete_powder
f 26/139/139 28/140/140 29/141/141
f 28/142/142 31/143/143 29/144/144
o SmallLeaves3
v 1 2 -4.3
v 1 2 -5.3
v 1 -2 -4.3
v 1 -2 -5.3
v 0 2 -5.3
v 0 2 -4.3
v 0 -2 -5.3
v 0 -2 -4.3
vt 0 1
vt 0 0.75
vt 0.0625 1
vt 0 0.75
vt 0.0625 0.75
vt 0.0625 1
vt 0 1
vt 0 0.75
vt 0.0625 1
vt 0 0.75
vt 0.0625 0.75
vt 0.0625 1
vt 0 1
vt 0 0.9375
vt 0.0625 1
vt 0 0.9375
vt 0.0625 0.9375
vt 0.0625 1
vt 0 1
vt 0 0.9375
vt 0.0625 1
vt 0 0.9375
vt 0.0625 0.9375
vt 0.0625 1
vt 0 1
vt 0 1
vt 0 1
vt 0 1
vt 0 1
vt 0 1
vt 0 1
vt 0 0.75
vt 0.0625 1
vt 0 0.75
vt 0.0625 0.75
vt 0.0625 1
vn 1 0 0
vn 1 0 0
vn 1 0 0
vn 1 0 0
vn 1 0 0
vn 1 0 0
vn -1 0 0
vn -1 0 0
vn -1 0 0
vn -1 0 0
vn -1 0 0
vn -1 0 0
vn 0 1 0
vn 0 1 0
vn 0 1 0
vn 0 1 0
vn 0 1 0
vn 0 1 0
vn 0 -1 0
vn 0 -1 0
vn 0 -1 0
vn 0 -1 0
vn 0 -1 0
vn 0 -1 0
vn 0 0 1
vn 0 0 1
vn 0 0 1
vn 0 0 1
vn 0 0 1
vn 0 0 1
vn 0 0 -1
vn 0 0 -1
vn 0 0 -1
vn 0 0 -1
vn 0 0 -1
vn 0 0 -1
usemtl green_concrete_powder
f 33/145/145 35/146/146 34/147/147
f 35/148/148 36/149/149 34/150/150
usemtl green_concrete_powder
f 37/151/151 39/152/152 38/153/153
f 39/154/154 40/155/155 38/156/156
usemtl green_concrete_powder
f 37/157/157 38/158/158 34/159/159
f 38/160/160 33/161/161 34/162/162
usemtl green_concrete_powder
f 40/163/163 39/164/164 35/165/165
f 39/166/166 36/167/167 35/168/168
usemtl green_concrete_powder
f 34/175/175 36/176/176 37/177/177
f 36/178/178 39/179/179 37/180/180
o SmallLeaves4
v 4 6 -4.3
v 4 6 -5.3
v 4 2 -4.3
v 4 2 -5.3
v 3 6 -5.3
v 3 6 -4.3
v 3 2 -5.3
v 3 2 -4.3
vt 0 1
vt 0 0.75
vt 0.0625 1
vt 0 0.75
vt 0.0625 0.75
vt 0.0625 1
vt 0 1
vt 0 0.75
vt 0.0625 1
vt 0 0.75
vt 0.0625 0.75
vt 0.0625 1
vt 0 1
vt 0 0.9375
vt 0.0625 1
vt 0 0.9375
vt 0.0625 0.9375
vt 0.0625 1
vt 0 1
vt 0 0.9375
vt 0.0625 1
vt 0 0.9375
vt 0.0625 0.9375
vt 0.0625 1
vt 0 1
vt 0 1
vt 0 1
vt 0 1
vt 0 1
vt 0 1
vt 0 1
vt 0 0.75
vt 0.0625 1
vt 0 0.75
vt 0.0625 0.75
vt 0.0625 1
vn 1 0 0
vn 1 0 0
vn 1 0 0
vn 1 0 0
vn 1 0 0
vn 1 0 0
vn -1 0 0
vn -1 0 0
vn -1 0 0
vn -1 0 0
vn -1 0 0
vn -1 0 0
vn 0 1 0
vn 0 1 0
vn 0 1 0
vn 0 1 0
vn 0 1 0
vn 0 1 0
vn 0 -1 0
vn 0 -1 0
vn 0 -1 0
vn 0 -1 0
vn 0 -1 0
vn 0 -1 0
vn 0 0 1
vn 0 0 1
vn 0 0 1
vn 0 0 1
vn 0 0 1
vn 0 0 1
vn 0 0 -1
vn 0 0 -1
vn 0 0 -1
vn 0 0 -1
vn 0 0 -1
vn 0 0 -1
usemtl green_concrete_powder
f 41/181/181 43/182/182 42/183/183
f 43/184/184 44/185/185 42/186/186
usemtl green_concrete_powder
f 45/187/187 47/188/188 46/189/189
f 47/190/190 48/191/191 46/192/192
usemtl green_concrete_powder
f 45/193/193 46/194/194 42/195/195
f 46/196/196 41/197/197 42/198/198
usemtl green_concrete_powder
f 48/199/199 47/200/200 43/201/201
f 47/202/202 44/203/203 43/204/204
usemtl green_concrete_powder
f 42/211/211 44/212/212 45/213/213
f 44/214/214 47/215/215 45/216/216
o SmallLeaves5
v -2 4 -4.3
v -2 4 -5.3
v -2 0 -4.3
v -2 0 -5.3
v -3 4 -5.3
v -3 4 -4.3
v -3 0 -5.3
v -3 0 -4.3
vt 0 1
vt 0 0.75
vt 0.0625 1
vt 0 0.75
vt 0.0625 0.75
vt 0.0625 1
vt 0 1
vt 0 0.75
vt 0.0625 1
vt 0 0.75
vt 0.0625 0.75
vt 0.0625 1
vt 0 1
vt 0 0.9375
vt 0.0625 1
vt 0 0.9375
vt 0.0625 0.9375
vt 0.0625 1
vt 0 1
vt 0 0.9375
vt 0.0625 1
vt 0 0.9375
vt 0.0625 0.9375
vt 0.0625 1
vt 0 1
vt 0 1
vt 0 1
vt 0 1
vt 0 1
vt 0 1
vt 0 1
vt 0 0.75
vt 0.0625 1
vt 0 0.75
vt 0.0625 0.75
vt 0.0625 1
vn 1 0 0
vn 1 0 0
vn 1 0 0
vn 1 0 0
vn 1 0 0
vn 1 0 0
vn -1 0 0
vn -1 0 0
vn -1 0 0
vn -1 0 0
vn -1 0 0
vn -1 0 0
vn 0 1 0
vn 0 1 0
vn 0 1 0
vn 0 1 0
vn 0 1 0
vn 0 1 0
vn 0 -1 0
vn 0 -1 0
vn 0 -1 0
vn 0 -1 0
vn 0 -1 0
vn 0 -1 0
vn 0 0 1
vn 0 0 1
vn 0 0 1
vn 0 0 1
vn 0 0 1
vn 0 0 1
vn 0 0 -1
vn 0 0 -1
vn 0 0 -1
vn 0 0 -1
vn 0 0 -1
vn 0 0 -1
usemtl green_concrete_powder
f 49/217/217 51/218/218 50/219/219
f 51/220/220 52/221/221 50/222/222
usemtl green_concrete_powder
f 53/223/223 55/224/224 54/225/225
f 55/226/226 56/227/227 54/228/228
usemtl green_concrete_powder
f 53/229/229 54/230/230 50/231/231
f 54/232/232 49/233/233 50/234/234
usemtl green_concrete_powder
f 56/235/235 55/236/236 51/237/237
f 55/238/238 52/239/239 51/240/240
usemtl green_concrete_powder
f 50/247/247 52/248/248 53/249/249
f 52/250/250 55/251/251 53/252/252
o SmallLeaves6
v 5.300000000000001 4 -2
v 5.300000000000001 4 -3
v 5.300000000000001 0 -2
v 5.300000000000001 0 -3
v 4.300000000000001 4 -3
v 4.300000000000001 4 -2
v 4.300000000000001 0 -3
v 4.300000000000001 0 -2
vt 0 1
vt 0 0.75
vt 0.0625 1
vt 0 0.75
vt 0.0625 0.75
vt 0.0625 1
vt 0 1
vt 0 1
vt 0 1
vt 0 1
vt 0 1
vt 0 1
vt 0 1
vt 0 0.9375
vt 0.0625 1
vt 0 0.9375
vt 0.0625 0.9375
vt 0.0625 1
vt 0 1
vt 0 0.9375
vt 0.0625 1
vt 0 0.9375
vt 0.0625 0.9375
vt 0.0625 1
vt 0 1
vt 0 0.75
vt 0.0625 1
vt 0 0.75
vt 0.0625 0.75
vt 0.0625 1
vt 0 1
vt 0 0.75
vt 0.0625 1
vt 0 0.75
vt 0.0625 0.75
vt 0.0625 1
vn 1 0 0
vn 1 0 0
vn 1 0 0
vn 1 0 0
vn 1 0 0
vn 1 0 0
vn -1 0 0
vn -1 0 0
vn -1 0 0
vn -1 0 0
vn -1 0 0
vn -1 0 0
vn 0 1 0
vn 0 1 0
vn 0 1 0
vn 0 1 0
vn 0 1 0
vn 0 1 0
vn 0 -1 0
vn 0 -1 0
vn 0 -1 0
vn 0 -1 0
vn 0 -1 0
vn 0 -1 0
vn 0 0 1
vn 0 0 1
vn 0 0 1
vn 0 0 1
vn 0 0 1
vn 0 0 1
vn 0 0 -1
vn 0 0 -1
vn 0 0 -1
vn 0 0 -1
vn 0 0 -1
vn 0 0 -1
usemtl green_concrete_powder
f 57/253/253 59/254/254 58/255/255
f 59/256/256 60/257/257 58/258/258
usemtl green_concrete_powder
f 61/265/265 62/266/266 58/267/267
f 62/268/268 57/269/269 58/270/270
usemtl green_concrete_powder
f 64/271/271 63/272/272 59/273/273
f 63/274/274 60/275/275 59/276/276
usemtl green_concrete_powder
f 62/277/277 64/278/278 57/279/279
f 64/280/280 59/281/281 57/282/282
usemtl green_concrete_powder
f 58/283/283 60/284/284 61/285/285
f 60/286/286 63/287/287 61/288/288
o SmallLeaves7
v 5.300000000000001 1 3
v 5.300000000000001 1 2
v 5.300000000000001 -3 3
v 5.300000000000001 -3 2
v 4.300000000000001 1 2
v 4.300000000000001 1 3
v 4.300000000000001 -3 2
v 4.300000000000001 -3 3
vt 0 1
vt 0 0.75
vt 0.0625 1
vt 0 0.75
vt 0.0625 0.75
vt 0.0625 1
vt 0 1
vt 0 1
vt 0 1
vt 0 1
vt 0 1
vt 0 1
vt 0 1
vt 0 0.9375
vt 0.0625 1
vt 0 0.9375
vt 0.0625 0.9375
vt 0.0625 1
vt 0 1
vt 0 0.9375
vt 0.0625 1
vt 0 0.9375
vt 0.0625 0.9375
vt 0.0625 1
vt 0 1
vt 0 0.75
vt 0.0625 1
vt 0 0.75
vt 0.0625 0.75
vt 0.0625 1
vt 0 1
vt 0 0.75
vt 0.0625 1
vt 0 0.75
vt 0.0625 0.75
vt 0.0625 1
vn 1 0 0
vn 1 0 0
vn 1 0 0
vn 1 0 0
vn 1 0 0
vn 1 0 0
vn -1 0 0
vn -1 0 0
vn -1 0 0
vn -1 0 0
vn -1 0 0
vn -1 0 0
vn 0 1 0
vn 0 1 0
vn 0 1 0
vn 0 1 0
vn 0 1 0
vn 0 1 0
vn 0 -1 0
vn 0 -1 0
vn 0 -1 0
vn 0 -1 0
vn 0 -1 0
vn 0 -1 0
vn 0 0 1
vn 0 0 1
vn 0 0 1
vn 0 0 1
vn 0 0 1
vn 0 0 1
vn 0 0 -1
vn 0 0 -1
vn 0 0 -1
vn 0 0 -1
vn 0 0 -1
vn 0 0 -1
usemtl green_concrete_powder
f 65/289/289 67/290/290 66/291/291
f 67/292/292 68/293/293 66/294/294
usemtl green_concrete_powder
f 69/301/301 70/302/302 66/303/303
f 70/304/304 65/305/305 66/306/306
usemtl green_concrete_powder
f 72/307/307 71/308/308 67/309/309
f 71/310/310 68/311/311 67/312/312
usemtl green_concrete_powder
f 70/313/313 72/314/314 65/315/315
f 72/316/316 67/317/317 65/318/318
usemtl green_concrete_powder
f 66/319/319 68/320/320 69/321/321
f 68/322/322 71/323/323 69/324/324
o SmallLeaves8
v 3 3 5.300000000000001
v 3 3 4.300000000000001
v 3 -1 5.300000000000001
v 3 -1 4.300000000000001
v 2 3 4.300000000000001
v 2 3 5.300000000000001
v 2 -1 4.300000000000001
v 2 -1 5.300000000000001
vt 0 1
vt 0 0.75
vt 0.0625 1
vt 0 0.75
vt 0.0625 0.75
vt 0.0625 1
vt 0 1
vt 0 0.75
vt 0.0625 1
vt 0 0.75
vt 0.0625 0.75
vt 0.0625 1
vt 0 1
vt 0 0.9375
vt 0.0625 1
vt 0 0.9375
vt 0.0625 0.9375
vt 0.0625 1
vt 0 1
vt 0 0.9375
vt 0.0625 1
vt 0 0.9375
vt 0.0625 0.9375
vt 0.0625 1
vt 0 1
vt 0 0.75
vt 0.0625 1
vt 0 0.75
vt 0.0625 0.75
vt 0.0625 1
vt 0 1
vt 0 1
vt 0 1
vt 0 1
vt 0 1
vt 0 1
vn 1 0 0
vn 1 0 0
vn 1 0 0
vn 1 0 0
vn 1 0 0
vn 1 0 0
vn -1 0 0
vn -1 0 0
vn -1 0 0
vn -1 0 0
vn -1 0 0
vn -1 0 0
vn 0 1 0
vn 0 1 0
vn 0 1 0
vn 0 1 0
vn 0 1 0
vn 0 1 0
vn 0 -1 0
vn 0 -1 0
vn 0 -1 0
vn 0 -1 0
vn 0 -1 0
vn 0 -1 0
vn 0 0 1
vn 0 0 1
vn 0 0 1
vn 0 0 1
vn 0 0 1
vn 0 0 1
vn 0 0 -1
vn 0 0 -1
vn 0 0 -1
vn 0 0 -1
vn 0 0 -1
vn 0 0 -1
usemtl green_concrete_powder
f 73/325/325 75/326/326 74/327/327
f 75/328/328 76/329/329 74/330/330
usemtl green_concrete_powder
f 77/331/331 79/332/332 78/333/333
f 79/334/334 80/335/335 78/336/336
usemtl green_concrete_powder
f 77/337/337 78/338/338 74/339/339
f 78/340/340 73/341/341 74/342/342
usemtl green_concrete_powder
f 80/343/343 79/344/344 75/345/345
f 79/346/346 76/347/347 75/348/348
usemtl green_concrete_powder
f 78/349/349 80/350/350 73/351/351
f 80/352/352 75/353/353 73/354/354
o SmallLeaves9
v -2 1 5.300000000000001
v -2 1 4.300000000000001
v -2 -3 5.300000000000001
v -2 -3 4.300000000000001
v -3 1 4.300000000000001
v -3 1 5.300000000000001
v -3 -3 4.300000000000001
v -3 -3 5.300000000000001
vt 0 1
vt 0 0.75
vt 0.0625 1
vt 0 0.75
vt 0.0625 0.75
vt 0.0625 1
vt 0 1
vt 0 0.75
vt 0.0625 1
vt 0 0.75
vt 0.0625 0.75
vt 0.0625 1
vt 0 1
vt 0 0.9375
vt 0.0625 1
vt 0 0.9375
vt 0.0625 0.9375
vt 0.0625 1
vt 0 1
vt 0 0.9375
vt 0.0625 1
vt 0 0.9375
vt 0.0625 0.9375
vt 0.0625 1
vt 0 1
vt 0 0.75
vt 0.0625 1
vt 0 0.75
vt 0.0625 0.75
vt 0.0625 1
vt 0 1
vt 0 1
vt 0 1
vt 0 1
vt 0 1
vt 0 1
vn 1 0 0
vn 1 0 0
vn 1 0 0
vn 1 0 0
vn 1 0 0
vn 1 0 0
vn -1 0 0
vn -1 0 0
vn -1 0 0
vn -1 0 0
vn -1 0 0
vn -1 0 0
vn 0 1 0
vn 0 1 0
vn 0 1 0
vn 0 1 0
vn 0 1 0
vn 0 1 0
vn 0 -1 0
vn 0 -1 0
vn 0 -1 0
vn 0 -1 0
vn 0 -1 0
vn 0 -1 0
vn 0 0 1
vn 0 0 1
vn 0 0 1
vn 0 0 1
vn 0 0 1
vn 0 0 1
vn 0 0 -1
vn 0 0 -1
vn 0 0 -1
vn 0 0 -1
vn 0 0 -1
vn 0 0 -1
usemtl green_concrete_powder
f 81/361/361 83/362/362 82/363/363
f 83/364/364 84/365/365 82/366/366
usemtl green_concrete_powder
f 85/367/367 87/368/368 86/369/369
f 87/370/370 88/371/371 86/372/372
usemtl green_concrete_powder
f 85/373/373 86/374/374 82/375/375
f 86/376/376 81/377/377 82/378/378
usemtl green_concrete_powder
f 88/379/379 87/380/380 83/381/381
f 87/382/382 84/383/383 83/384/384
usemtl green_concrete_powder
f 86/385/385 88/386/386 81/387/387
f 88/388/388 83/389/389 81/390/390
o SmallLeaves10
v -1 6 5.300000000000001
v -1 6 4.300000000000001
v -1 2 5.300000000000001
v -1 2 4.300000000000001
v -2 6 4.300000000000001
v -2 6 5.300000000000001
v -2 2 4.300000000000001
v -2 2 5.300000000000001
vt 0 1
vt 0 0.75
vt 0.0625 1
vt 0 0.75
vt 0.0625 0.75
vt 0.0625 1
vt 0 1
vt 0 0.75
vt 0.0625 1
vt 0 0.75
vt 0.0625 0.75
vt 0.0625 1
vt 0 1
vt 0 0.9375
vt 0.0625 1
vt 0 0.9375
vt 0.0625 0.9375
vt 0.0625 1
vt 0 1
vt 0 0.9375
vt 0.0625 1
vt 0 0.9375
vt 0.0625 0.9375
vt 0.0625 1
vt 0 1
vt 0 0.75
vt 0.0625 1
vt 0 0.75
vt 0.0625 0.75
vt 0.0625 1
vt 0 1
vt 0 1
vt 0 1
vt 0 1
vt 0 1
vt 0 1
vn 1 0 0
vn 1 0 0
vn 1 0 0
vn 1 0 0
vn 1 0 0
vn 1 0 0
vn -1 0 0
vn -1 0 0
vn -1 0 0
vn -1 0 0
vn -1 0 0
vn -1 0 0
vn 0 1 0
vn 0 1 0
vn 0 1 0
vn 0 1 0
vn 0 1 0
vn 0 1 0
vn 0 -1 0
vn 0 -1 0
vn 0 -1 0
vn 0 -1 0
vn 0 -1 0
vn 0 -1 0
vn 0 0 1
vn 0 0 1
vn 0 0 1
vn 0 0 1
vn 0 0 1
vn 0 0 1
vn 0 0 -1
vn 0 0 -1
vn 0 0 -1
vn 0 0 -1
vn 0 0 -1
vn 0 0 -1
usemtl green_concrete_powder
f 89/397/397 91/398/398 90/399/399
f 91/400/400 92/401/401 90/402/402
usemtl green_concrete_powder
f 93/403/403 95/404/404 94/405/405
f 95/406/406 96/407/407 94/408/408
usemtl green_concrete_powder
f 93/409/409 94/410/410 90/411/411
f 94/412/412 89/413/413 90/414/414
usemtl green_concrete_powder
f 96/415/415 95/416/416 91/417/417
f 95/418/418 92/419/419 91/420/420
usemtl green_concrete_powder
f 94/421/421 96/422/422 89/423/423
f 96/424/424 91/425/425 89/426/426
o SmallLeaves11
v -4.3 0 2
v -4.3 0 1
v -4.3 -4 2
v -4.3 -4 1
v -5.3 0 1
v -5.3 0 2
v -5.3 -4 1
v -5.3 -4 2
vt 0 1
vt 0 1
vt 0 1
vt 0 1
vt 0 1
vt 0 1
vt 0 1
vt 0 0.75
vt 0.0625 1
vt 0 0.75
vt 0.0625 0.75
vt 0.0625 1
vt 0 1
vt 0 0.9375
vt 0.0625 1
vt 0 0.9375
vt 0.0625 0.9375
vt 0.0625 1
vt 0 1
vt 0 0.9375
vt 0.0625 1
vt 0 0.9375
vt 0.0625 0.9375
vt 0.0625 1
vt 0 1
vt 0 0.75
vt 0.0625 1
vt 0 0.75
vt 0.0625 0.75
vt 0.0625 1
vt 0 1
vt 0 0.75
vt 0.0625 1
vt 0 0.75
vt 0.0625 0.75
vt 0.0625 1
vn 1 0 0
vn 1 0 0
vn 1 0 0
vn 1 0 0
vn 1 0 0
vn 1 0 0
vn -1 0 0
vn -1 0 0
vn -1 0 0
vn -1 0 0
vn -1 0 0
vn -1 0 0
vn 0 1 0
vn 0 1 0
vn 0 1 0
vn 0 1 0
vn 0 1 0
vn 0 1 0
vn 0 -1 0
vn 0 -1 0
vn 0 -1 0
vn 0 -1 0
vn 0 -1 0
vn 0 -1 0
vn 0 0 1
vn 0 0 1
vn 0 0 1
vn 0 0 1
vn 0 0 1
vn 0 0 1
vn 0 0 -1
vn 0 0 -1
vn 0 0 -1
vn 0 0 -1
vn 0 0 -1
vn 0 0 -1
usemtl green_concrete_powder
f 101/439/439 103/440/440 102/441/441
f 103/442/442 104/443/443 102/444/444
usemtl green_concrete_powder
f 101/445/445 102/446/446 98/447/447
f 102/448/448 97/449/449 98/450/450
usemtl green_concrete_powder
f 104/451/451 103/452/452 99/453/453
f 103/454/454 100/455/455 99/456/456
usemtl green_concrete_powder
f 102/457/457 104/458/458 97/459/459
f 104/460/460 99/461/461 97/462/462
usemtl green_concrete_powder
f 98/463/463 100/464/464 101/465/465
f 100/466/466 103/467/467 101/468/468
o SmallLeaves12
v -2 7.300000000000001 3
v -2 7.300000000000001 1
v -2 6.300000000000001 3
v -2 6.300000000000001 1
v -4 7.300000000000001 1
v -4 7.300000000000001 3
v -4 6.300000000000001 1
v -4 6.300000000000001 3
vt 0 1
vt 0 0.9375
vt 0.125 1
vt 0 0.9375
vt 0.125 0.9375
vt 0.125 1
vt 0 1
vt 0 0.9375
vt 0.125 1
vt 0 0.9375
vt 0.125 0.9375
vt 0.125 1
vt 0 1
vt 0 0.875
vt 0.125 1
vt 0 0.875
vt 0.125 0.875
vt 0.125 1
vt 0 1
vt 0 1
vt 0 1
vt 0 1
vt 0 1
vt 0 1
vt 0 1
vt 0 0.9375
vt 0.125 1
vt 0 0.9375
vt 0.125 0.9375
vt 0.125 1
vt 0 1
vt 0 0.9375
vt 0.125 1
vt 0 0.9375
vt 0.125 0.9375
vt 0.125 1
vn 1 0 0
vn 1 0 0
vn 1 0 0
vn 1 0 0
vn 1 0 0
vn 1 0 0
vn -1 0 0
vn -1 0 0
vn -1 0 0
vn -1 0 0
vn -1 0 0
vn -1 0 0
vn 0 1 0
vn 0 1 0
vn 0 1 0
vn 0 1 0
vn 0 1 0
vn 0 1 0
vn 0 -1 0
vn 0 -1 0
vn 0 -1 0
vn 0 -1 0
vn 0 -1 0
vn 0 -1 0
vn 0 0 1
vn 0 0 1
vn 0 0 1
vn 0 0 1
vn 0 0 1
vn 0 0 1
vn 0 0 -1
vn 0 0 -1
vn 0 0 -1
vn 0 0 -1
vn 0 0 -1
vn 0 0 -1
usemtl green_concrete_powder
f 105/469/469 107/470/470 106/471/471
f 107/472/472 108/473/473 106/474/474
usemtl green_concrete_powder
f 109/475/475 111/476/476 110/477/477
f 111/478/478 112/479/479 110/480/480
usemtl green_concrete_powder
f 109/481/481 110/482/482 106/483/483
f 110/484/484 105/485/485 106/486/486
usemtl green_concrete_powder
f 110/493/493 112/494/494 105/495/495
f 112/496/496 107/497/497 105/498/498
usemtl green_concrete_powder
f 106/499/499 108/500/500 109/501/501
f 108/502/502 111/503/503 109/504/504
o SmallLeaves13
v 0 7.300000000000001 0
v 0 7.300000000000001 -2
v 0 6.300000000000001 0
v 0 6.300000000000001 -2
v -2 7.300000000000001 -2
v -2 7.300000000000001 0
v -2 6.300000000000001 -2
v -2 6.300000000000001 0
vt 0 1
vt 0 0.9375
vt 0.125 1
vt 0 0.9375
vt 0.125 0.9375
vt 0.125 1
vt 0 1
vt 0 0.9375
vt 0.125 1
vt 0 0.9375
vt 0.125 0.9375
vt 0.125 1
vt 0 1
vt 0 0.875
vt 0.125 1
vt 0 0.875
vt 0.125 0.875
vt 0.125 1
vt 0 1
vt 0 1
vt 0 1
vt 0 1
vt 0 1
vt 0 1
vt 0 1
vt 0 0.9375
vt 0.125 1
vt 0 0.9375
vt 0.125 0.9375
vt 0.125 1
vt 0 1
vt 0 0.9375
vt 0.125 1
vt 0 0.9375
vt 0.125 0.9375
vt 0.125 1
vn 1 0 0
vn 1 0 0
vn 1 0 0
vn 1 0 0
vn 1 0 0
vn 1 0 0
vn -1 0 0
vn -1 0 0
vn -1 0 0
vn -1 0 0
vn -1 0 0
vn -1 0 0
vn 0 1 0
vn 0 1 0
vn 0 1 0
vn 0 1 0
vn 0 1 0
vn 0 1 0
vn 0 -1 0
vn 0 -1 0
vn 0 -1 0
vn 0 -1 0
vn 0 -1 0
vn 0 -1 0
vn 0 0 1
vn 0 0 1
vn 0 0 1
vn 0 0 1
vn 0 0 1
vn 0 0 1
vn 0 0 -1
vn 0 0 -1
vn 0 0 -1
vn 0 0 -1
vn 0 0 -1
vn 0 0 -1
usemtl green_concrete_powder
f 113/505/505 115/506/506 114/507/507
f 115/508/508 116/509/509 114/510/510
usemtl green_concrete_powder
f 117/511/511 119/512/512 118/513/513
f 119/514/514 120/515/515 118/516/516
usemtl green_concrete_powder
f 117/517/517 118/518/518 114/519/519
f 118/520/520 113/521/521 114/522/522
usemtl green_concrete_powder
f 118/529/529 120/530/530 113/531/531
f 120/532/532 115/533/533 113/534/534
usemtl green_concrete_powder
f 114/535/535 116/536/536 117/537/537
f 116/538/538 119/539/539 117/540/540
o SmallLeaves14
v 4 7.300000000000001 -2
v 4 7.300000000000001 -4
v 4 6.300000000000001 -2
v 4 6.300000000000001 -4
v 2 7.300000000000001 -4
v 2 7.300000000000001 -2
v 2 6.300000000000001 -4
v 2 6.300000000000001 -2
vt 0 1
vt 0 0.9375
vt 0.125 1
vt 0 0.9375
vt 0.125 0.9375
vt 0.125 1
vt 0 1
vt 0 0.9375
vt 0.125 1
vt 0 0.9375
vt 0.125 0.9375
vt 0.125 1
vt 0 1
vt 0 0.875
vt 0.125 1
vt 0 0.875
vt 0.125 0.875
vt 0.125 1
vt 0 1
vt 0 1
vt 0 1
vt 0 1
vt 0 1
vt 0 1
vt 0 1
vt 0 0.9375
vt 0.125 1
vt 0 0.9375
vt 0.125 0.9375
vt 0.125 1
vt 0 1
vt 0 0.9375
vt 0.125 1
vt 0 0.9375
vt 0.125 0.9375
vt 0.125 1
vn 1 0 0
vn 1 0 0
vn 1 0 0
vn 1 0 0
vn 1 0 0
vn 1 0 0
vn -1 0 0
vn -1 0 0
vn -1 0 0
vn -1 0 0
vn -1 0 0
vn -1 0 0
vn 0 1 0
vn 0 1 0
vn 0 1 0
vn 0 1 0
vn 0 1 0
vn 0 1 0
vn 0 -1 0
vn 0 -1 0
vn 0 -1 0
vn 0 -1 0
vn 0 -1 0
vn 0 -1 0
vn 0 0 1
vn 0 0 1
vn 0 0 1
vn 0 0 1
vn 0 0 1
vn 0 0 1
vn 0 0 -1
vn 0 0 -1
vn 0 0 -1
vn 0 0 -1
vn 0 0 -1
vn 0 0 -1
usemtl green_concrete_powder
f 121/541/541 123/542/542 122/543/543
f 123/544/544 124/545/545 122/546/546
usemtl green_concrete_powder
f 125/547/547 127/548/548 126/549/549
f 127/550/550 128/551/551 126/552/552
usemtl green_concrete_powder
f 125/553/553 126/554/554 122/555/555
f 126/556/556 121/557/557 122/558/558
usemtl green_concrete_powder
f 126/565/565 128/566/566 121/567/567
f 128/568/568 123/569/569 121/570/570
usemtl green_concrete_powder
f 122/571/571 124/572/572 125/573/573
f 124/574/574 127/575/575 125/576/576
o SmallLeaves15
v 3 7.300000000000001 4
v 3 7.300000000000001 2
v 3 6.300000000000001 4
v 3 6.300000000000001 2
v 1 7.300000000000001 2
v 1 7.300000000000001 4
v 1 6.300000000000001 2
v 1 6.300000000000001 4
vt 0 1
vt 0 0.9375
vt 0.125 1
vt 0 0.9375
vt 0.125 0.9375
vt 0.125 1
vt 0 1
vt 0 0.9375
vt 0.125 1
vt 0 0.9375
vt 0.125 0.9375
vt 0.125 1
vt 0 1
vt 0 0.875
vt 0.125 1
vt 0 0.875
vt 0.125 0.875
vt 0.125 1
vt 0 1
vt 0 1
vt 0 1
vt 0 1
vt 0 1
vt 0 1
vt 0 1
vt 0 0.9375
vt 0.125 1
vt 0 0.9375
vt 0.125 0.9375
vt 0.125 1
vt 0 1
vt 0 0.9375
vt 0.125 1
vt 0 0.9375
vt 0.125 0.9375
vt 0.125 1
vn 1 0 0
vn 1 0 0
vn 1 0 0
vn 1 0 0
vn 1 0 0
vn 1 0 0
vn -1 0 0
vn -1 0 0
vn -1 0 0
vn -1 0 0
vn -1 0 0
vn -1 0 0
vn 0 1 0
vn 0 1 0
vn 0 1 0
vn 0 1 0
vn 0 1 0
vn 0 1 0
vn 0 -1 0
vn 0 -1 0
vn 0 -1 0
vn 0 -1 0
vn 0 -1 0
vn 0 -1 0
vn 0 0 1
vn 0 0 1
vn 0 0 1
vn 0 0 1
vn 0 0 1
vn 0 0 1
vn 0 0 -1
vn 0 0 -1
vn 0 0 -1
vn 0 0 -1
vn 0 0 -1
vn 0 0 -1
usemtl green_concrete_powder
f 129/577/577 131/578/578 130/579/579
f 131/580/580 132/581/581 130/582/582
usemtl green_concrete_powder
f 133/583/583 135/584/584 134/585/585
f 135/586/586 136/587/587 134/588/588
usemtl green_concrete_powder
f 133/589/589 134/590/590 130/591/591
f 134/592/592 129/593/593 130/594/594
usemtl green_concrete_powder
f 134/601/601 136/602/602 129/603/603
f 136/604/604 131/605/605 129/606/606
usemtl green_concrete_powder
f 130/607/607 132/608/608 133/609/609
f 132/610/610 135/611/611 133/612/612
